<?xml version="1.0" encoding="utf-8"?>
<!-- Generator: Adobe Illustrator 27.0.1, SVG Export Plug-In . SVG Version: 6.00 Build 0)  -->
<svg version="1.1" id="Layer_1" xmlns="http://www.w3.org/2000/svg" xmlns:xlink="http://www.w3.org/1999/xlink" x="0px" y="0px"
	 viewBox="0 0 1425 695" style="enable-background:new 0 0 1425 695;" xml:space="preserve">
<g id="Layer_2_00000109025759771097061230000007210167808367712425_">
	<g id="Layer_1-2">
		<path d="M35.8,561.3v97.3h24.9c26.5-0.4,47.7-22.2,47.4-48.7c0.7-26.2-19.9-47.9-46.1-48.6c-0.4,0-0.9,0-1.3,0L35.8,561.3
			L35.8,561.3z M60.6,530.8c46.4,0,81.5,35.1,81.5,79.2c0,44.1-35.1,79.2-81.5,79.2H5.8c-2.2,0-3.9-1.8-3.9-4v-150
			c0-2.2,1.8-3.9,3.9-3.9L60.6,530.8z"/>
		<path d="M261.8,662c28.7,0,52-23.3,52-52c0-28.7-23.3-52-52-52c-28.7,0-52,23.3-52,52C209.8,638.7,233.1,662,261.8,662
			 M261.8,527.4c48.6,0,86,37.3,86,82.6c0,45.2-37.3,82.6-86,82.6s-86-37.4-86-82.6c0-45.2,37.3-82.4,86-82.4"/>
		<path d="M466.2,662c28.7,0,52.1-23.3,52.1-52c0-28.7-23.3-52.1-52-52.1c-28.7,0-52.1,23.3-52.1,52c0,0,0,0,0,0
			C414.3,638.7,437.5,661.9,466.2,662 M466.2,527.4c48.7,0,86,37.3,86,82.6c0,45.2-37.3,82.6-86,82.6c-48.7,0-86-37.4-86-82.6
			c0-45.2,37.3-82.4,86-82.4"/>
		<path d="M666.1,561.3h-35.1v41.9h35.1c11.3,0.5,21-8.3,21.5-19.6c0-0.2,0-0.5,0-0.7c0.4-11.5-8.6-21.1-20.1-21.5
			C667.1,561.3,666.6,561.3,666.1,561.3 M597.1,534.9c0-2.2,1.8-3.9,3.9-3.9h66.1c31.6,0,54.3,23.1,54.3,52.1
			c0.2,19.6-10.8,37.6-28.3,46.3l30.5,53.9c1.2,1.8,0.7,4.3-1.1,5.5c-0.7,0.5-1.6,0.7-2.5,0.6h-26.7c-1.5,0-2.9-0.8-3.6-2.1
			l-29.4-53.3h-29.4v51.3c0,2.2-1.8,4-3.9,4h-25.7c-2.2,0-3.9-1.8-3.9-4L597.1,534.9z"/>
		<path d="M809.9,562.1v97.3h25c26.5-0.4,47.7-22.1,47.4-48.6c0.7-26.2-19.9-47.9-46.1-48.6c-0.4,0-0.9,0-1.3,0L809.9,562.1
			L809.9,562.1z M834.9,531.5c46.4,0,81.5,35.1,81.5,79.2c0,44.1-35.1,79.2-81.5,79.2h-54.8c-2.2,0-3.9-1.8-3.9-3.9V535.5
			c0-2.2,1.8-3.9,3.9-3.9H834.9z"/>
		<path d="M1019.7,570.2l-19.2,52.1h38.5L1019.7,570.2z M989.2,651.7l-12.6,34.6c-0.6,1.7-2.2,2.8-4,2.7h-27.2
			c-2.2,0.2-4.1-1.4-4.3-3.6c-0.1-0.7,0.1-1.4,0.4-2l59-150c0.6-1.6,2.2-2.7,3.9-2.6h30.6c1.7-0.1,3.4,1,3.9,2.6l59,150
			c0.9,2,0.1,4.3-1.9,5.3c-0.6,0.3-1.3,0.4-2,0.4h-27.3c-1.8,0.1-3.4-1-3.9-2.7l-12.6-34.6L989.2,651.7L989.2,651.7z"/>
		<path d="M1129.6,573.6c0-24.9,21.5-46.4,55.5-46.4c18.2-0.4,35.8,6.2,49.2,18.5c1.6,1.6,1.6,4.2,0,5.8l-15.3,15.2
			c-1.5,1.5-4,1.6-5.6,0c0,0,0,0,0,0c-7.2-6.5-16.5-10.2-26.2-10.3c-13.6,0-23.7,7.9-23.7,17c0,29.4,80.3,12.4,80.3,69
			c0,28.3-21.5,49.8-60,49.8c-21.4,0.3-42-8-57.2-23c-1.6-1.6-1.6-4.2,0-5.8l14.7-14.6c1.5-1.6,4-1.6,5.6-0.1c0,0,0.1,0.1,0.1,0.1
			c9.3,8.9,21.7,14,34.6,14.1c17,0,28.2-9.1,28.2-20.4c0-29.4-80.2-12.4-80.2-69"/>
		<path d="M1389.4,534.7v59.2h-67.9v-59.2c0-2.2-1.8-4-3.9-4h-25.9c-2.2,0-3.9,1.8-3.9,4v150c0,2.2,1.8,3.9,3.9,3.9h25.7
			c2.2,0,3.9-1.8,3.9-3.9v-60.4h67.9v60.4c0,2.2,1.8,3.9,3.9,3.9h26c2.2,0,3.9-1.8,3.9-3.9v-150c0-2.2-1.8-4-3.9-4h-25.7
			c-2.2-0.1-4,1.6-4.1,3.8C1389.4,534.6,1389.4,534.7,1389.4,534.7z"/>
		<path d="M972.7,88.7C944.3,35.4,888.8,2.2,828.5,2.4H371.6c-8.7,0.1-15.7,7.3-15.6,16c0.1,4.1,1.7,7.9,4.5,10.8l99.5,100.1
			c8.8,8.8,20.7,13.8,33.2,13.8h322.1c22.9-1.6,42.8,15.6,44.4,38.5c1.6,22.9-15.6,42.8-38.5,44.4c-1.7,0.1-3.4,0.1-5,0.1H594.1
			c-8.7,0.1-15.7,7.3-15.6,16c0,4.1,1.7,8,4.5,10.9L682.5,353c8.8,8.8,20.7,13.8,33.2,13.8h100.4c130.7,0,229.4-139.6,156.5-278.3"
			/>
	</g>
</g>
</svg>
