<?xml version="1.0" encoding="utf-8"?>
<!-- Generator: Adobe Illustrator 27.0.1, SVG Export Plug-In . SVG Version: 6.00 Build 0)  -->
<svg version="1.1" id="Layer_1" xmlns="http://www.w3.org/2000/svg" xmlns:xlink="http://www.w3.org/1999/xlink" x="0px" y="0px"
	 viewBox="0 0 369 61" style="enable-background:new 0 0 369 61;" xml:space="preserve">
<g>
	<path d="M171.1,24.6c-5.5,0-9.4,4.3-9.4,10.8v24.1h-8.4V17.1h8.2v5.2c2.1-3.5,5.9-5.6,9.9-5.5h3v7.8L171.1,24.6z M147.6,38.3
		c0-12.7-9-22.1-21.2-22.1c-12.1,0.1-21.8,9.9-21.7,22c0,0,0,0.1,0,0.1c0,12.6,9.8,22.2,22.5,22.2c7.2,0.1,14-3.2,18.3-9.1l-6.1-4.4
		c-2.8,3.9-7.4,6.2-12.2,6.2c-7,0-13-5.2-14-12.1h34.4L147.6,38.3z M113.4,34.4c1.5-6.5,6.7-10.8,12.9-10.8s11.4,4.4,12.8,10.8
		H113.4z M78.3,16.2c-5.6,0-11,2.3-15,6.3V1.2h-8.3v58.3h8.2v-5.4c4,4,9.4,6.3,15.1,6.4c12.2,0.3,22.4-9.4,22.6-21.7
		c0.3-12.2-9.4-22.4-21.7-22.6C78.9,16.2,78.6,16.2,78.3,16.2L78.3,16.2z M77.7,53c-8.1,0-14.7-6.5-14.8-14.6
		c0-8.1,6.5-14.7,14.6-14.8c8.1,0,14.7,6.5,14.8,14.6c0,0,0,0.1,0,0.1C92.3,46.5,85.8,53,77.7,53C77.7,53,77.7,53,77.7,53L77.7,53z
		 M24.2,52.6c8.1,0,14.3-6.2,14.3-15.4V1.2h8.7v58.3h-8.5V54c-4,4.2-9.6,6.5-15.4,6.5c-12.4,0-22-9.1-22-22.8V1.2H10v36
		C10,46.6,16,52.6,24.2,52.6z"/>
	<path d="M195.3,1.2h40.9v10h-29.8v14.2h29v9.7h-29v14.4h29.8v10h-40.9V1.2z M349.1,60.6c12.5,0,19.6-6,19.6-14.2
		c0-5.9-4.2-10.2-12.9-12.2l-9.2-1.9c-5.4-1-7.1-2-7.1-4c0-2.6,2.6-4.2,7.4-4.2c5.2,0,9,1.4,10,6.2h10.8c-0.6-9-7.1-14.9-20.2-14.9
		c-11.3,0-19.3,4.7-19.3,13.8c0,6.3,4.4,10.3,13.8,12.3l10.3,2.4c4.1,0.8,5.2,1.9,5.2,3.6c0,2.7-3.1,4.4-8.1,4.4
		c-6.3,0-9.8-1.4-11.2-6.2h-10.9C328.9,54.6,335.5,60.6,349.1,60.6z M324.1,59.5h-11.7c-7.4,0-11.4-4.6-11.4-10.4V26.2h-8.2v-9.8
		h8.3V4.2h10.9v12.2h12.2v9.8h-12.2v20.1c0,2.3,1.6,3.4,4.1,3.4h8.1L324.1,59.5z M277.1,16.5v3.9c-3.8-3.2-8.7-5-13.7-5
		c-12.5-0.3-22.8,9.6-23.1,22.1c-0.3,12.5,9.6,22.8,22.1,23.1c0.3,0,0.6,0,1,0c5,0,9.9-1.8,13.7-5v3.9H288v-43L277.1,16.5z
		 M264.3,51.2c-7.3,0.1-13.2-5.7-13.3-13c-0.1-7.3,5.7-13.2,13-13.3c7.3-0.1,13.2,5.7,13.3,13c0,0.1,0,0.1,0,0.2
		c0.1,7.2-5.7,13.1-12.9,13.1C264.4,51.1,264.3,51.1,264.3,51.2L264.3,51.2z"/>
</g>
</svg>
