<?xml version="1.0" encoding="utf-8"?>
<!-- Generator: Adobe Illustrator 27.0.1, SVG Export Plug-In . SVG Version: 6.00 Build 0)  -->
<svg version="1.1" id="Layer_1" xmlns="http://www.w3.org/2000/svg" xmlns:xlink="http://www.w3.org/1999/xlink" x="0px" y="0px"
	 viewBox="0 0 310.4 91" style="enable-background:new 0 0 310.4 91;" xml:space="preserve">
<path d="M42.4,0.9c1.8-1.2,4-1.2,5.8,0c4.5,2.8,8.7,5.9,12.8,9.2c0,0,1.1,0.8,1.1-0.5c0,0-0.2-3.9,0.3-5C62.7,3.6,63.6,3,64.6,3
	c0,0,5,0.2,8.2,0.7c1.4,0.2,2.5,1.4,2.6,2.8c0,0,2.1,13.8,2.5,18.7c0,0,0.4,2.5,4,6.8c0,0,7.4,10.3,8.3,12.4c0,0,1.7,3.6-2,4.1
	c0,0-6.8,0.7-7.4,0.8c-0.9,0.1-1.6,0.9-1.5,1.8l0,0c0,0-0.3,23.9-2.1,35.4c0,0-0.4,4.6-3,4.4c0,0-7-0.2-8.6-0.2c0,0-0.7,0-0.6-0.9
	c0,0,3.5-37.2,1.1-56.1c0,0-0.1-2.4-2-2.9c0,0-1.7-0.7-3.3,1.5c-7,9.8-10.8,21.5-11,33.6c0,0-0.2,6,0.7,7.5c0,0,0.6,1,3.4,1.3
	l3.7,0.5c0,0,0.7,0,0.6,0.9c0,0-0.8,10.9-1.1,12.9c0,0.4-0.1,0.9-0.3,1.3c0,0-0.1,0.4-1.3,0.3c0,0-16.1-0.1-17.9,0
	c0,0-0.8,0.1-0.9-0.4s-1.1-14.1-1.1-16c0-0.4,0.2-0.8,0.6-1c2.5-1.6,4.1-4.2,4.5-7.1c0.2-2.1,0.3-4.2,0.1-6.2c0,0,0.6-21,0.7-24.3
	c0,0,0.1-1.1-1.4-1.3c-0.7-0.2-1.5,0.3-1.7,1v0.1c0,0-1,13.8-0.8,19.3c0,0,0.3,3.6-2.1,3.7c0,0-2.4,0.4-2.5-2.6
	c0,0,0.2-13.4,0.8-20.1c0-0.8-0.6-1.4-1.3-1.5c-0.8-0.1-1.5,0.4-1.7,1.2v0.1c0,0-1,12.8-0.8,19.6c0,0,0.3,3.3-2.3,3.2
	c0,0-2.2,0.3-2.3-2.7c0,0,0.6-18.4,0.8-19.8c0.1-0.8-0.5-1.6-1.3-1.7c0,0,0,0,0,0h-0.2c-0.8-0.1-1.5,0.4-1.6,1.2c0,0,0,0,0,0v0.2
	c0,0-1,22-0.8,28.5c0,0-0.1,6.7,4.8,9.3c0,0,0.7,0.4,0.7,1c0,0,0.5,11.7,1,15.4c0,0,0.2,0.9-0.6,0.9L16,91c-1.3,0-2.4-1.1-2.5-2.4
	c-1.5-12.4-2.3-24.8-2.1-37.3c0.1-1-0.6-1.8-1.5-2c0,0-6.3-0.6-7.8-1c-1.4-0.3-2.3-1.8-1.9-3.2c0,0,0,0,0,0c0.1-0.2,0.2-0.5,0.3-0.7
	C10.6,26.8,25.1,11.8,42.4,0.9z"/>
<path d="M176.4,32c-0.2-0.3-0.6-0.5-1-0.5h-10.9l-13.3,45.2l-5-21.9l15.5-21.1c0.1-0.1,0.2-0.3,0.2-0.5l0.3-0.9
	c0.1-0.3-0.1-0.6-0.3-0.7c0,0,0,0,0,0c0,0-0.1,0-0.1,0h-11l-11.9,17.3l5.1-15.7c0.2-0.7-0.2-1.4-0.9-1.6c-0.1,0-0.2-0.1-0.4,0h-10.9
	l-9.5,32.1c0.2-5.5-4.1-9.9-6.6-12.6c-2-2.2-3.2-3.8-3-5.6c0.3-2.4,2.3-4.3,4.8-4.4c2.7-0.2,3.9,0.6,5.6,1.4
	c0.2,0.1,0.4,0.1,0.6,0.2c0.2,0,0.4,0,0.5-0.1c0.4-0.1,0.7-0.4,0.8-0.8l2.5-8.6l-1.8-0.8l-0.3-0.1h-0.1c-2.1-0.9-4.3-1.3-6.6-1.3
	c-9.6,0-18.3,6.8-19.7,15.3c-1,5.9,2.8,10.1,5.5,13.1l0.2,0.3c2,2.1,3.4,3.8,3,5.7c-0.5,2.7-3.1,4.2-5.6,4.4
	c-2.8,0.2-4.5-0.6-6.7-1.5c-0.4-0.2-0.8-0.3-1.3-0.2c-0.4,0.1-0.8,0.5-0.9,0.9L91,77.1l0,0l-0.3,1.1c3.2,1.5,6.7,2.3,10.3,2.4
	c8.2,0,15.2-3.1,19.4-10.7l-2.5,8.4c-0.2,0.7,0.2,1.4,0.8,1.6c0,0,0,0,0,0c0.1,0,0.2,0.1,0.4,0.1h10.9l2.7-9.3l3.3-4.8l2.6,13
	c0.1,0.6,0.7,1,1.2,1h23l13.8-46.7C176.8,32.7,176.7,32.3,176.4,32L176.4,32z"/>
<path d="M190.8,41.9h4.1c0.6,0,1.1,0.2,1.5,0.6c0.7,0.8,1,1.8,0.8,2.8c-0.2,2.6-0.9,5.1-2,7.4c-1.4,3-2.6,5.2-6.2,5.7h-3.1
	L190.8,41.9z M182.9,68.8h4.8c11.5,0.2,17.3-7.9,19.9-16.6c0.9-2.5,1.4-5.2,1.5-7.9c0.2-3.3-1-6.6-3.2-9.1c-2.1-2.3-5.2-3.7-8.4-3.6
	h-18.1l-0.8,2.6c-0.1,0.2,0,0.5,0.1,0.7l0.5,0.8c0.5,0.8,0.6,1.8,0.4,2.7l-11.7,40c-0.1,0.4,0,0.8,0.2,1.1c0.2,0.3,0.6,0.5,1,0.5
	h10.5L182.9,68.8L182.9,68.8z"/>
<path d="M218.3,56.4h1.5c1.5,0,2.8,1.3,2.6,4.5c-0.2,3.2-2.8,14.2-7.9,14.2h-1.7L218.3,56.4L218.3,56.4z M206.6,79.8h6.7
	c10.7,0,14.4-13.4,14.7-19c0.4-6.2-3.1-9.2-6.8-9.2H214L206,79c-0.1,0.3,0.1,0.6,0.4,0.7C206.5,79.7,206.5,79.7,206.6,79.8
	L206.6,79.8z"/>
<path d="M222.8,47.9h2.6l2-6.8h3.1l-1.9,6.3c-0.1,0.2,0.1,0.4,0.2,0.4h0.1h2.6l4.5-15.3c0.1-0.2,0-0.4-0.2-0.4c0,0,0,0,0,0h-2.7
	l-1.9,6.4h-3.1l1.7-5.9c0.1-0.2,0-0.4-0.2-0.4c0,0,0,0,0,0H227l-4.5,15.3C222.5,47.7,222.6,47.9,222.8,47.9
	C222.8,47.9,222.8,47.9,222.8,47.9L222.8,47.9L222.8,47.9z"/>
<path d="M234.6,47.9h6.6l0.6-2.2c0.1-0.2,0-0.4-0.2-0.4c-0.1,0-0.1,0-0.2,0h-3.6l1.3-4.1h3.2l0.6-2.2c0.1-0.2,0-0.4-0.2-0.4
	c0,0,0,0,0,0H240l1.1-3.8h4l0.6-2.2c0.1-0.2,0-0.4-0.2-0.4c0,0,0,0,0,0h-6.8l-0.1,0.3l-4.4,15C234.2,47.6,234.4,47.8,234.6,47.9
	L234.6,47.9L234.6,47.9z"/>
<path d="M215.6,47.9h2.6l3.9-13.1h2.5l0.6-2.2c0.1-0.2-0.1-0.4-0.3-0.4c0,0,0,0,0,0h-7.6l-0.6,2.2c-0.1,0.2,0.1,0.4,0.3,0.4
	c0,0,0,0,0,0h2.1l-3.7,12.7C215.2,47.6,215.4,47.8,215.6,47.9L215.6,47.9L215.6,47.9z"/>
<path d="M234.6,51.7l-8,27.4c-0.1,0.3,0.1,0.6,0.4,0.7c0.1,0,0.1,0,0.2,0h4.7l8-27.3c0.1-0.3-0.1-0.7-0.4-0.7c0,0,0,0,0,0
	c0,0-0.1,0-0.1,0L234.6,51.7z"/>
<path d="M276.9,51.7h-4.7l-3.3,11.3h-5.6l3.1-10.6c0.1-0.3-0.1-0.7-0.4-0.7c0,0,0,0,0,0c0,0-0.1,0-0.1,0h-4.6l-8,27.3
	c-0.1,0.3,0.1,0.6,0.4,0.7c0.1,0,0.1,0,0.2,0h4.7l3.5-12.1h5.6l-3.4,11.4c-0.1,0.3,0.1,0.7,0.4,0.8h0.1h4.7l8-27.3
	C277.5,52.2,277.3,51.8,276.9,51.7C277,51.7,277,51.7,276.9,51.7C277,51.7,276.9,51.7,276.9,51.7L276.9,51.7z"/>
<path d="M288.9,63.2H284l2-6.8h7.2l1.1-3.9c0.1-0.3-0.1-0.7-0.4-0.7c0,0,0,0,0,0c0,0-0.1,0-0.1,0h-11.9l-8,27.3
	c-0.1,0.3,0.1,0.6,0.4,0.7c0.1,0,0.1,0,0.2,0h11.9l1.1-3.9c0.1-0.3-0.1-0.7-0.4-0.7c0,0,0,0,0,0c0,0-0.1,0-0.1,0h-6.4l2.2-7.3h5.7
	l1.2-3.9c0.1-0.3-0.1-0.7-0.4-0.7c0,0,0,0,0,0C289,63.2,288.9,63.2,288.9,63.2L288.9,63.2z"/>
<path d="M247.2,59.4c0.3-1.8,1.8-3.2,3.7-3.4c1.1-0.1,2.1,0.1,3.1,0.5c0.5,0.2,1,0,1.2-0.4c0,0,0,0,0-0.1c0-0.1,1.1-3.8,1.1-3.8
	c-1.5-0.6-3-1-4.6-1c-5,0-10,3.7-10.8,8.8c-0.5,3.4,1.6,5.8,3.1,7.6c1.2,1.4,2.2,2.6,1.9,4.2c-0.3,2-2,3.5-4,3.6
	c-1.3,0.1-2.6-0.1-3.7-0.7c-0.4-0.2-0.9-0.1-1.1,0.3c0,0,0,0,0,0c0,0.1-0.1,0.1-0.1,0.2l-1.2,4.2c1.7,0.7,3.5,1,5.4,1
	c5.4,0,10-3.8,11-9.1c0.5-3.4-1.6-6-3.1-7.8C248,62,247,60.8,247.2,59.4L247.2,59.4z"/>
<path d="M305.8,51.3c-5,0-10,3.7-10.8,8.8c-0.5,3.4,1.6,5.8,3.1,7.6c1.2,1.4,2.2,2.6,1.9,4.2c-0.3,2-2,3.5-4,3.6
	c-1.3,0.1-2.6-0.1-3.7-0.7c-0.4-0.2-0.9-0.1-1.1,0.3c0,0,0,0,0,0c0,0.1-0.1,0.1-0.1,0.2l-1.2,4.2c1.7,0.7,3.5,1,5.4,1
	c5.4,0,10-3.8,11-9.1c0.5-3.4-1.6-6-3.1-7.8c-1.2-1.4-2.1-2.6-1.9-4.1c0.3-1.9,1.8-3.3,3.7-3.4c1.1-0.1,2.1,0.1,3.1,0.5
	c0.5,0.2,1,0,1.2-0.4c0,0,0,0,0-0.1c0-0.1,1.1-3.8,1.1-3.8C308.9,51.6,307.4,51.3,305.8,51.3L305.8,51.3z"/>
</svg>
